<svg width="130" height="40" viewBox="0 0 130 40" fill="none" xmlns="http://www.w3.org/2000/svg">
<path d="M94.2151 15.5347C91.5889 15.8612 89.6526 17.3523 88.9404 19.5779C88.4508 21.0914 88.5101 22.5306 89.1259 23.9921C89.8529 25.7207 91.4183 26.9522 93.4955 27.4196C94.0964 27.5605 95.6469 27.5679 96.2701 27.4492C98.6812 26.9744 100.365 25.4759 101.063 23.2057C101.226 22.6641 101.248 22.5009 101.248 21.5365C101.248 20.5721 101.226 20.4088 101.063 19.8673C100.373 17.6268 98.748 16.1505 96.4259 15.6608C95.9437 15.5644 94.6232 15.4902 94.2151 15.5347ZM95.684 18.48C96.552 18.71 97.3755 19.2738 97.7539 19.934C98.34 20.9282 98.3177 22.2413 97.7094 23.1909C96.6188 24.9046 94.1261 25.1865 92.6275 23.7621C91.3812 22.5751 91.3366 20.6908 92.5236 19.4073C93.3175 18.5616 94.5787 18.1981 95.684 18.48Z" fill="white"/>
<path d="M107.05 15.5347C104.423 15.8612 102.487 17.3523 101.775 19.5779C101.285 21.0914 101.345 22.5306 101.96 23.9921C102.687 25.7207 104.253 26.9522 106.33 27.4196C106.931 27.5605 108.481 27.5679 109.105 27.4492C111.516 26.9744 113.2 25.4759 113.897 23.2057C114.06 22.6641 114.083 22.5009 114.083 21.5365C114.083 20.5721 114.06 20.4088 113.897 19.8673C113.207 17.6268 111.582 16.1505 109.26 15.6608C108.778 15.5644 107.458 15.4902 107.05 15.5347ZM108.526 18.48C109.401 18.71 110.217 19.2738 110.596 19.934C111.182 20.9282 111.16 22.2413 110.551 23.1909C109.461 24.9046 106.968 25.1865 105.469 23.7621C104.223 22.5751 104.179 20.6908 105.366 19.4073C106.152 18.5616 107.413 18.1981 108.526 18.48Z" fill="white"/>
<path d="M124.335 15.5719C122.807 15.7945 121.657 16.7738 121.286 18.1833C120.93 19.5113 121.182 20.8689 121.895 21.5292C122.317 21.9224 122.822 22.1524 124.209 22.5975C125.552 23.0278 125.856 23.2132 125.997 23.6658C126.153 24.1851 125.767 24.8083 125.181 24.9715C124.862 25.0605 124.261 25.0605 123.861 24.9641C123.423 24.8602 122.636 24.4744 122.303 24.1851C122.154 24.0441 121.984 23.9403 121.954 23.9403C121.924 23.9403 121.754 24.1925 121.59 24.5041C121.36 24.9418 121.286 25.0383 121.271 24.9196L121.249 24.7712H119.461H117.681V20.2754V15.7797H116.204H114.728V21.544V27.3084H117.985H121.242V26.9894C121.242 26.8188 121.257 26.6778 121.271 26.6778C121.286 26.6778 121.553 26.8039 121.865 26.9449C122.829 27.3974 123.445 27.531 124.639 27.531C125.804 27.531 126.353 27.4271 127.073 27.0784C127.644 26.8039 128.416 26.0398 128.675 25.5056C129.187 24.4373 129.261 22.9981 128.831 22.0856C128.757 21.915 128.505 21.5811 128.267 21.3511C127.763 20.8467 127.221 20.5722 125.834 20.127C125.285 19.9564 124.736 19.7487 124.61 19.6745C124.165 19.4 124.076 18.7991 124.424 18.4207C125.033 17.7679 126.116 17.8272 127.243 18.5765L127.466 18.7175L128.067 17.5676C128.386 16.9444 128.653 16.4177 128.638 16.4102C128.571 16.3435 127.733 16.0096 127.258 15.8613C126.257 15.5497 125.203 15.4384 124.335 15.5719Z" fill="white"/>
<path d="M41.3936 19.9047V27.5015H44.0791C45.5555 27.5015 47.0986 27.457 47.4992 27.4124C50.8154 27.0044 53.2636 24.9939 54.0499 22.0413C54.3096 21.062 54.369 19.3408 54.1835 18.317C53.8051 16.3288 52.7739 14.7264 51.1863 13.6432C50.4741 13.1536 49.8361 12.8865 48.8123 12.6046C48.0111 12.3895 47.885 12.3895 44.6949 12.345L41.401 12.3079V19.9047H41.3936ZM47.2544 15.4089C49.339 15.854 50.7263 17.5974 50.7263 19.7785C50.7189 21.2252 50.2738 22.4716 49.4429 23.295C48.6194 24.1259 47.3953 24.5265 45.689 24.534H44.8804V19.9121V15.2902H45.778C46.2677 15.2902 46.9279 15.3496 47.2544 15.4089Z" fill="white"/>
<path d="M55.4373 19.9119V27.5013L61.8322 27.4939H68.2198L69.8667 25.1793C70.7792 23.9181 71.5434 22.8794 71.5656 22.8794C71.6027 22.8794 72.3668 23.9181 73.2719 25.1941L74.9263 27.5087H77.0036C78.1386 27.5087 79.0734 27.4791 79.0734 27.4568C79.0734 27.4271 77.8493 25.7208 76.373 23.6658L73.6725 19.9268L76.2543 16.3213C77.6787 14.3479 78.9176 12.649 78.9992 12.5525C79.1624 12.3893 79.1624 12.4116 79.1624 13.9324V15.4755H80.7352H82.308V21.4921V27.5087H84.1849H86.0619V21.4921V15.4755L87.8943 15.4607L89.7193 15.431L88.74 13.8879L87.7608 12.3448L81.351 12.3374H74.9337L73.2868 14.6521C72.3743 15.9132 71.6101 16.9519 71.5879 16.9667C71.5582 16.9667 70.7941 15.9281 69.889 14.6521L68.2346 12.3374H61.8471H55.4521V19.9119H55.4373ZM66.7212 16.1135C68.1901 18.1463 69.3919 19.8526 69.3919 19.9045C69.3919 19.9565 68.1901 21.6776 66.7138 23.7252L64.0282 27.4494L63.9985 25.9953L63.9837 24.5412H61.4539H58.9241V22.8349V21.136H60.9716H63.0192V19.6968V18.2576H60.9716H58.9241V16.7738V15.2901H61.4539H63.9837V13.8508C63.9837 13.057 63.9985 12.4116 64.0208 12.4116C64.043 12.4116 65.2523 14.0808 66.7212 16.1135Z" fill="white"/>
<path fill-rule="evenodd" clip-rule="evenodd" d="M12.9086 2.24788C10.5346 3.48681 8.58349 4.53286 8.59091 4.57737C8.59091 4.68865 14.2959 7.57454 14.4962 7.56713C14.5853 7.56713 15.253 7.25554 15.98 6.8846L17.3005 6.2095L18.7398 6.95137L20.179 7.69325L22.5382 6.63236C26.0843 5.03733 26.4553 4.85928 26.3959 4.80735C26.3217 4.72574 25.0457 4.04322 21.5886 2.22563C19.9193 1.35021 18.3021 0.482217 17.9905 0.311586C17.6789 0.133536 17.3821 0 17.3302 0C17.2783 0 15.2826 1.00895 12.9086 2.24788ZM2.48528 7.64873L0.0074192 8.92476V14.5333C0.0074192 17.6195 0.0370942 20.1419 0.0816067 20.1419C0.1187 20.1419 1.33538 19.6152 2.78945 18.9697L5.42311 17.7976V11.8848L6.70655 12.5822C7.70066 13.1238 8.68736 13.6579 9.68147 14.1995L11.3729 15.112L12.1222 14.7707C12.597 14.5556 13.0644 14.3404 13.5318 14.1253C13.8953 13.9547 14.7856 13.5541 15.5126 13.235C16.2396 12.916 16.9073 12.5896 17.0038 12.5154C17.1299 12.419 15.5868 11.5658 11.2988 9.36246C8.06418 7.70066 5.31183 6.35045 5.18571 6.35787C5.05959 6.36529 3.84291 6.94395 2.48528 7.64873ZM26.8336 8.00483C25.1496 8.76896 23.7697 9.42181 23.7697 9.45891C23.7697 9.496 24.6896 10.045 25.8098 10.6756C26.9375 11.3062 27.85 11.8552 27.85 11.8997C27.85 11.9442 26.8559 12.4264 25.6392 12.968C24.4225 13.517 21.3512 14.9043 18.8065 16.0542L10.2972 19.9045C8.15321 20.8689 6.22433 21.7444 6.00919 21.8408C1.63954 23.8216 0.430288 24.3706 0.267075 24.467C0.103863 24.5635 0.0667688 25.1125 0.0370938 27.8797L0 31.181L2.21079 32.3087L4.42158 33.4363L7.49294 32.049C9.177 31.2849 10.5643 30.6246 10.5643 30.5727C10.5643 30.5207 10.2527 30.3204 9.87436 30.1201C9.496 29.9198 8.70961 29.4747 8.12353 29.1334C7.54487 28.7922 6.96621 28.4806 6.84009 28.4361C6.71397 28.3916 6.61011 28.3248 6.61011 28.2729C6.61011 28.2283 7.96032 27.5829 9.6147 26.8485C12.8196 25.4166 15.2678 24.3112 20.5277 21.9298C22.8794 20.8689 25.2312 19.8006 27.5903 18.7398C29.6602 17.805 32.0638 16.7144 32.9318 16.3138L34.512 15.5868L34.5491 12.2484L34.5862 8.90992L32.3458 7.76743C31.1142 7.13684 30.0534 6.61753 30.0014 6.61753C29.9421 6.61753 28.5177 7.24812 26.8336 8.00483ZM33.9185 20.0529C33.5847 20.2161 32.9318 20.5203 32.4645 20.728C31.9971 20.9357 31.1068 21.3363 30.4911 21.6182L29.3708 22.1301L29.3486 25.0605C29.3337 26.6704 29.2744 27.9835 29.215 27.9761C29.0815 27.9539 26.982 26.8781 24.8677 25.7431C23.3394 24.927 23.2429 24.8899 22.8868 25.068C22.6791 25.1718 21.4402 25.7282 20.1345 26.2995C18.8288 26.8781 17.716 27.3826 17.664 27.4345C17.6121 27.4791 20.2384 28.9035 23.51 30.6023L29.445 33.6885L31.9822 32.3754C33.377 31.6558 34.564 30.9955 34.6159 30.9139C34.742 30.7285 34.7272 19.7339 34.6085 19.7487C34.5565 19.7561 34.245 19.8897 33.9185 20.0529ZM19.8674 32.9541C19.4297 33.1396 18.9846 33.3324 18.5469 33.5253C17.2189 34.0966 17.4786 34.1188 15.8984 33.3324C14.8449 32.8057 14.3924 32.6499 14.1921 32.7241C14.0437 32.7835 12.7751 33.3547 11.3655 33.9927C9.96338 34.6307 8.76154 35.1575 8.70219 35.1575C8.10869 35.1575 9.09539 35.7435 12.879 37.6502L17.3154 39.8906L19.1849 38.9707C20.2087 38.4662 22.2859 37.4499 23.7845 36.7154C25.2905 35.9809 26.4998 35.3652 26.4775 35.3355C26.4553 35.3133 25.1941 34.6678 23.6732 33.8963L20.9135 32.5015L19.8674 32.9541Z" fill="#05A3C9"/>
</svg>
