<svg width="160" height="36" viewBox="0 0 160 36" fill="none" xmlns="http://www.w3.org/2000/svg">
<path d="M27.6324 20.5437C27.6324 16.9785 27.6349 13.6785 27.6314 10.3788C27.6295 8.45664 27.4747 8.30626 25.5487 8.2996C25.3374 8.29897 25.1249 8.31483 24.9149 8.29707C22.849 8.12353 22.4971 8.73994 22.5358 10.5825C22.6126 14.2261 22.4882 17.8744 22.5907 21.5167C22.6358 23.1232 22.132 23.9928 20.3386 24.0841C20.3386 20.8762 20.3418 17.6736 20.3373 14.4713C20.3345 12.4222 19.7472 11.8055 17.806 11.788C15.579 11.768 14.9702 12.3124 14.954 14.4691C14.9292 17.797 14.9549 21.1255 14.9388 24.4534C14.9365 24.9064 15.0711 25.3747 14.7253 25.8144C14.3062 26.347 13.7827 26.4543 13.1825 26.3654C12.4256 26.2538 12.7488 25.6323 12.7441 25.2446C12.7123 22.6036 12.6711 19.9603 12.7561 17.3214C12.7888 16.3142 12.3412 15.7888 11.5135 15.6575C10.6407 15.5192 9.7058 15.5087 8.83972 15.6689C7.89656 15.8434 7.63452 16.6349 7.64403 17.5603C7.671 20.1487 7.65133 22.7374 7.6545 25.3258C7.65577 26.2106 7.84865 27.2001 6.75352 27.61C5.00233 28.2651 3.38851 27.9698 2.55161 26.8873C0.989183 24.8661 0.319477 22.4341 0.0955019 20.0158C-0.782632 10.5352 4.44207 2.78747 13.8268 0.510919C19.4459 -0.851966 24.6496 0.548039 29.1789 4.27726C31.5446 6.22482 33.1781 8.63969 34.3006 11.4575C34.8564 12.8527 34.7564 14.0563 33.635 15.1464C31.7781 16.9521 30.0507 18.9016 27.6324 20.5437Z" fill="#324B88"/>
<path d="M6.95752 31.9363C12.7377 30.9526 17.8844 29.5319 22.6868 27.0739C27.3542 24.6851 31.3946 21.5063 34.5572 17.2834C34.7726 16.996 34.8576 16.5357 35.317 16.6689C35.7094 16.7825 35.5534 17.2073 35.5521 17.4922C35.5121 26.3576 29.5914 33.8903 20.4931 35.295C15.6123 36.0488 11.3555 34.8835 6.95752 31.9363Z" fill="#324B88"/>
<path d="M50.7461 23.2042C50.7987 23.2042 50.8517 23.2048 50.9044 23.2042C53.9525 23.1728 54.5498 23.8383 54.3709 19.8147C54.3408 19.1393 54.3477 18.423 55.1294 18.1517C55.7249 17.9452 56.1205 18.3871 56.4457 18.8075C56.5589 18.954 56.5745 19.1996 56.5815 19.402C56.6319 20.8803 56.2998 22.3301 56.5247 23.8466C56.703 25.0505 55.6925 25.4826 54.4315 25.343C50.892 24.9519 47.3376 24.9024 43.7962 25.3722C43.1722 25.455 42.6792 25.4103 42.2521 24.8998C42.0206 24.6232 41.9146 24.3133 42.0383 24.0309C42.301 23.4319 42.8803 23.4846 43.406 23.5255C44.8244 23.6356 45.2092 22.8914 45.187 21.6008C45.1362 18.6453 45.1375 15.688 45.1863 12.7325C45.2082 11.4109 44.8859 10.5705 43.3546 10.8402C42.4676 10.9962 42.0494 10.4934 42.0313 9.74726C42.0082 8.8025 42.7991 8.95954 43.4161 8.93226C44.7784 8.87166 46.1346 9.22855 47.46 9.19239C49.7039 9.13116 51.9446 8.8815 54.1996 8.92813C56.0555 8.96652 56.7065 9.68032 56.2217 11.4902C55.9958 12.3334 55.8816 13.0482 56.1903 13.9013C56.3845 14.4384 56.506 15.1636 55.9958 15.6912C55.6155 16.0842 55.0102 16.0389 54.659 15.852C54.0765 15.5421 54.0559 14.8562 54.0419 14.2134C53.968 10.837 53.9582 10.8373 50.4767 10.8373C47.5616 10.8373 46.6983 11.9775 47.3925 14.8524C47.6367 15.8644 48.4162 15.5757 49.0463 15.5798C49.7052 15.5842 50.452 15.5801 50.5506 14.6633C50.6068 14.1414 50.57 13.6084 50.5611 13.0805C50.55 12.4327 50.845 12.1076 51.5059 12.105C52.1613 12.1025 52.4278 12.4162 52.476 13.065C52.5433 13.9682 52.2634 14.8137 52.1667 15.6864C52.0223 16.9881 52.2305 18.2811 52.4503 19.5714C52.5889 20.3857 52.4135 21.0056 51.3247 21.0056C50.1687 21.0053 50.61 20.1992 50.5776 19.6815C50.5145 18.6764 50.8634 17.5483 49.1935 17.4703C47.861 17.4078 47.1514 17.7421 47.3864 19.2037C47.4194 19.4096 47.3909 19.6253 47.3909 19.8363C47.3909 23.2042 47.3909 23.2042 50.7461 23.2042Z" fill="white"/>
<path d="M72.1262 13.6884C74.1147 12.2424 76.0496 12.1627 78.0552 13.1456C79.4003 13.8048 80.044 14.8977 80.0522 16.3748C80.0621 18.1714 79.9431 19.979 80.1182 21.7581C80.1763 22.3479 79.7045 24.0927 81.6318 23.285C82.1108 23.0842 82.7285 23.6641 82.6054 24.5014C82.4766 25.3798 81.7907 25.5086 81.2438 25.3658C79.7962 24.9877 78.3988 24.9525 76.9674 25.3849C76.4163 25.5514 75.9712 25.2171 75.6416 24.8205C75.423 24.5575 75.3659 24.2307 75.6 23.87C75.9331 23.3567 76.2967 23.2806 76.8608 23.4887C77.6034 23.7631 77.8341 23.2796 77.9445 22.6375C78.3382 20.3512 78.3553 18.0527 77.7503 15.8253C77.4765 14.8178 76.3662 14.3863 75.3789 14.3638C74.1537 14.3359 72.9878 14.8733 72.5421 16.0721C71.7166 18.2916 72.2055 20.6395 72.1804 22.9329C72.1754 23.397 72.6956 23.6714 73.1214 23.4868C73.9494 23.128 74.5652 23.2273 74.634 24.1819C74.7041 25.1492 73.7635 25.4946 73.1445 25.3614C71.5834 25.0254 70.098 25.0112 68.5442 25.3754C67.9925 25.5048 67.404 25.2031 67.3383 24.3278C67.2615 23.3015 68.2257 23.2628 68.5074 23.3583C70.105 23.9008 69.9023 22.8425 69.9042 21.9409C69.9105 18.6647 69.8744 15.3882 69.9248 12.1129C69.9416 11.027 69.744 10.3513 68.4664 10.5108C67.8894 10.5829 67.3266 10.4119 67.3999 9.70853C67.4716 9.01694 67.9655 8.53663 68.6961 8.63783C69.4984 8.74918 70.27 8.75648 71.0717 8.63371C71.9155 8.50427 72.1516 9.03534 72.1338 9.79736C72.1056 11.0115 72.1262 12.2268 72.1262 13.6884Z" fill="white"/>
<path d="M107.644 22.6488C107.644 22.1212 107.634 21.593 107.646 21.0657C107.659 20.5753 107.464 19.9687 108.357 20.0201C108.995 20.0569 109.441 20.1261 109.561 20.9182C109.948 23.4641 112.58 24.6075 114.716 23.1745C115.297 22.7849 115.74 22.1669 115.487 21.4651C115.144 20.5128 114.231 20.1061 113.31 20.0664C112.309 20.0233 111.389 19.7431 110.438 19.5217C108.615 19.0972 107.925 18.4031 107.975 16.0418C108.008 14.5238 109.424 13.0534 110.966 12.7396C112.13 12.5027 113.306 12.3634 114.426 12.8177C114.886 13.0045 115.166 13.054 115.495 12.6702C115.819 12.293 116.357 12.2822 116.64 12.5141C117.019 12.8243 117.338 13.3808 117.129 13.8995C116.839 14.6187 116.852 15.2272 117.107 15.9771C117.377 16.7715 117.096 17.6484 116.112 17.7727C115.175 17.8911 115.299 17.0767 115.244 16.4476C115.126 15.1041 114.085 14.6856 113.003 14.4937C112.072 14.3284 111.181 14.7094 110.577 15.4302C109.818 16.3362 110.366 17.4387 111.743 17.7864C112.832 18.0614 113.953 18.2051 115.051 18.4485C117.143 18.9123 117.927 19.9671 117.791 22.0746C117.687 23.6944 116.148 25.2039 114.513 25.439C113.022 25.6531 111.576 25.6972 110.211 24.966C109.861 24.7785 109.686 24.7423 109.527 25.1718C109.296 25.7965 108.731 25.8479 108.211 25.7007C107.557 25.5161 107.637 24.9168 107.642 24.3898C107.648 23.8096 107.644 23.229 107.644 22.6488Z" fill="white"/>
<path d="M119.379 19.071C119.198 16.4677 120.015 14.3326 122.438 13.1135C124.361 12.1459 126.314 12.366 128.134 13.4646C129.403 14.2308 129.92 16.0937 129.386 17.4924C129.102 18.2357 128.631 18.5434 127.832 18.4581C127.22 18.3927 126.668 18.5184 126.287 17.731C125.876 16.8823 126.288 16.3519 126.794 16.0267C127.286 15.7104 127.167 15.646 126.886 15.3189C125.573 13.7898 122.737 14.3593 121.987 16.502C121.318 18.4149 121.223 20.4047 122.388 22.3266C123.053 23.4252 124.02 23.7653 125.038 23.6539C126.297 23.5162 127.423 22.8678 127.61 21.3885C127.719 20.5249 128.112 19.9307 128.995 20.0798C130.053 20.2584 130.021 21.2406 129.796 21.9326C129.3 23.4547 128.358 24.85 126.809 25.3122C124.933 25.8718 122.953 25.9812 121.341 24.3836C119.566 22.6251 119.377 22.1588 119.379 19.071Z" fill="white"/>
<path d="M100.033 19.835C100.033 20.5736 100.026 21.3121 100.035 22.0507C100.046 22.9976 100.33 23.6787 101.481 23.5242C102.204 23.4275 102.708 23.5554 102.581 24.4969C102.462 25.376 101.775 25.5023 101.224 25.3674C99.676 24.9883 98.1815 24.9893 96.6346 25.3665C96.0706 25.5042 95.3437 25.3833 95.2825 24.508C95.2289 23.7435 95.6705 23.4437 96.3637 23.5293C97.6247 23.6848 97.8696 23.0398 97.8313 21.9402C97.7653 20.0434 97.8322 18.1425 97.8043 16.2438C97.7916 15.3888 97.9036 14.3971 96.416 14.9069C95.9957 15.0509 95.26 14.8222 95.2736 13.9971C95.2847 13.3343 95.6194 12.9689 96.2476 13.0732C97.4166 13.2674 98.5971 12.6932 99.8144 13.4498C100.423 13.8283 101.221 12.7246 102.139 12.6047C103.566 12.4178 104.747 12.7113 105.815 13.6075C107.007 14.6071 106.795 15.9843 106.622 17.2507C106.466 18.3836 104.652 18.8931 103.734 18.1673C103.135 17.6942 102.944 17.1898 103.614 16.6143C104.091 16.2054 105.001 15.7565 104.307 15.1052C103.757 14.5894 102.933 14.0139 101.916 14.4739C100.523 15.1036 100.252 16.352 100.054 17.6232C99.9409 18.3436 100.033 19.0965 100.033 19.835Z" fill="white"/>
<path d="M60.0759 19.3568C60.0759 18.5123 60.0506 17.6669 60.0823 16.8236C60.1226 15.7564 60.1791 14.7631 58.5944 14.9281C58.0186 14.988 57.8356 14.4836 57.8546 13.9395C57.8746 13.3612 58.1649 13.0097 58.7308 13.0697C60.1181 13.2165 60.1369 12.346 60.0794 11.3721C60.0579 11.0038 60.0855 10.6332 60.0747 10.2639C60.0563 9.63421 60.3059 9.26716 60.981 9.24971C61.6257 9.23321 61.9191 9.51461 61.9908 10.17C62.0908 11.0843 61.5147 12.2194 62.3522 12.865C63.0498 13.4028 64.0958 13.0671 64.9767 13.0303C65.7943 12.9964 65.9891 13.537 66.0636 14.0623C66.1772 14.8611 65.5697 14.9325 64.9301 14.9677C61.9785 15.1302 61.9467 15.1429 61.9937 18.2081C62.0149 19.6046 61.7615 21.016 62.2764 22.4021C62.5812 23.2228 63.0495 23.5568 63.9048 23.5305C64.8419 23.5016 64.9745 22.7456 65.1109 22.1441C65.2591 21.4909 65.1598 20.779 65.1484 20.0932C65.1379 19.4631 65.3819 19.097 66.057 19.0799C66.7022 19.0634 67.0512 19.3406 67.0515 20.0024C67.0518 20.9526 67.1648 21.9205 67.0214 22.8487C66.708 24.8791 65.2892 25.6357 62.4588 25.4229C61.0337 25.3156 60.0883 24.0422 60.0778 22.2066C60.0715 21.2571 60.0759 20.307 60.0759 19.3568Z" fill="white"/>
<path fill-rule="evenodd" clip-rule="evenodd" d="M156.8 19.6344C156.798 19.3735 156.797 19.1126 156.797 18.8517C156.797 18.1652 156.797 17.4787 156.797 16.7912C156.797 13.7479 154.47 12.0732 151.403 12.6655C151.045 12.7347 150.7 12.9299 150.368 13.1179C149.847 13.4123 149.358 13.6891 148.898 13.4376C148.12 13.012 147.353 13.0506 146.594 13.0887C146.134 13.1118 145.676 13.1348 145.222 13.0541C144.529 12.931 144.223 13.3993 144.287 13.9053C144.354 14.4373 144.681 15.2329 145.384 14.9097C146.787 14.2644 146.872 15.4978 146.909 16.0784C147.045 18.182 146.999 20.3009 146.944 22.4119C146.918 23.421 146.197 23.5286 145.314 23.553C144.463 23.5764 144.45 23.1658 144.436 22.6887C144.432 22.5721 144.428 22.4515 144.412 22.3322C144.387 22.1429 144.41 21.9238 144.434 21.702C144.501 21.0748 144.57 20.4265 143.54 20.3726C142.463 20.3163 142.498 20.964 142.533 21.6033C142.545 21.8138 142.556 22.0234 142.528 22.2066C142.521 22.2498 142.524 22.2946 142.526 22.3388C142.526 22.3475 142.527 22.3562 142.527 22.3649C142.551 22.9344 142.474 23.487 141.76 23.4965C141.118 23.5054 141.185 23.0933 141.244 22.731C141.261 22.6255 141.278 22.5243 141.276 22.4388C141.247 21.1779 141.251 19.9162 141.255 18.6546C141.257 18.1734 141.258 17.6921 141.258 17.2109C141.257 15.021 140.387 13.2574 138.957 12.8374C136.189 12.0246 133.857 12.669 132.365 14.5496C131.785 15.2808 131.842 16.2135 132.392 17.0117C132.914 17.7703 133.788 17.6614 134.399 17.3921C135.246 17.0184 135.014 16.2123 134.685 15.4956C134.471 15.0324 134.835 14.784 135.172 14.6717C136.102 14.3608 137.01 14.1077 137.991 14.7028C138.751 15.1641 139.045 15.7212 139.051 16.573C139.056 17.2791 138.584 17.4649 138.133 17.643C138.022 17.6866 137.913 17.7297 137.812 17.7798C137.261 18.0535 136.655 18.0809 136.048 18.1083C135.824 18.1184 135.6 18.1285 135.378 18.1509C132.192 18.4733 130.867 20.1407 131.155 22.3903C131.441 24.6329 133.206 25.8007 136.391 25.5167C136.849 25.4758 137.31 25.2529 137.774 25.0281C138.785 24.5384 139.814 24.0399 140.877 25.3968C140.965 25.5086 141.218 25.481 141.486 25.4518C141.648 25.434 141.816 25.4157 141.955 25.4279C142.45 25.4716 142.911 25.3657 143.384 25.2572C144.054 25.1035 144.746 24.9446 145.587 25.1998C146.227 25.3938 146.969 25.3412 147.743 25.2862C148.529 25.2306 149.348 25.1725 150.129 25.3664C150.649 25.4955 151.353 25.3235 151.422 24.427C151.487 23.5857 151.097 23.4556 150.403 23.5143C149.161 23.6193 148.916 22.7158 148.888 21.8043C148.886 21.7156 148.883 21.6269 148.88 21.5381C148.829 19.9068 148.778 18.2657 149.193 16.6605C149.562 15.2351 150.588 14.3757 151.959 14.3846C153.168 14.3925 154.273 14.8262 154.633 16.4242C154.895 17.5908 154.879 18.7468 154.862 19.9003C154.853 20.5648 154.844 21.2286 154.888 21.8932C154.961 23.0035 154.585 23.723 153.283 23.5251C152.675 23.4328 152.324 23.5654 152.33 24.3417C152.335 25.157 152.931 25.4479 153.394 25.3454C154.946 25.0022 156.443 25.0114 157.995 25.34C158.456 25.4374 159.159 25.1281 159.306 24.4689C159.431 23.9102 159.097 23.4775 158.536 23.5447C156.745 23.7595 156.767 22.6022 156.793 21.3865C156.806 20.8028 156.803 20.2185 156.8 19.6344ZM134.9 23.5485C137.507 24.0485 139.194 22.4331 138.943 19.5664C138.524 19.6429 138.103 19.7124 137.682 19.7818C136.653 19.9515 135.623 20.1214 134.621 20.3954C133.956 20.5775 133.184 21.1409 133.389 21.9734C133.561 22.6684 133.925 23.3613 134.9 23.5485Z" fill="white"/>
<path fill-rule="evenodd" clip-rule="evenodd" d="M88.7847 19.4068C89.1437 19.4027 89.5028 19.3986 89.8617 19.3984C90.1857 19.3983 90.5096 19.3979 90.8336 19.3976C91.7237 19.3966 92.6138 19.3956 93.504 19.4003L93.5096 19.4003C93.9507 19.4025 94.2919 19.4042 94.3383 18.7747C94.4881 16.7519 94.1331 14.8529 92.4453 13.6166C90.7554 12.3787 88.8354 12.097 86.799 13.0205C84.1173 14.2362 82.9635 16.8093 83.2366 20.3003C83.4711 23.2976 84.873 24.7557 88.0201 25.439C90.7706 26.0364 93.2007 24.6945 94.0493 22.2767C94.3792 21.3374 94.1715 20.7162 93.3888 20.3933C92.5374 20.042 92.2911 20.7667 92.0811 21.3843C92.0719 21.4115 92.0627 21.4385 92.0535 21.4652C91.5199 23.0194 90.2861 23.7281 88.8021 23.7595C87.266 23.7922 85.7603 22.1127 85.4624 20.3638C85.3663 19.8007 85.3968 19.3416 86.22 19.3832C87.0732 19.4263 87.929 19.4165 88.7847 19.4068ZM88.3134 17.5052C88.4743 17.5005 88.6353 17.4958 88.7957 17.4958C89.0391 17.4958 89.2825 17.4943 89.5259 17.4927C90.0749 17.4893 90.624 17.4859 91.1728 17.4999C91.9986 17.5212 92.3606 17.3965 91.8714 16.441C90.5837 13.9265 88.2269 13.8738 86.4398 15.8725C86.386 15.9327 86.3187 15.996 86.2471 16.0632C85.9464 16.3458 85.5713 16.6984 85.8066 17.1938C86.0146 17.632 86.3797 17.5731 86.7423 17.5146C86.9044 17.4884 87.0661 17.4624 87.213 17.4809C87.5749 17.5266 87.9441 17.5159 88.3134 17.5052Z" fill="white"/>
</svg>
