<svg width="128" height="29" viewBox="0 0 128 29" fill="none" xmlns="http://www.w3.org/2000/svg">
<path d="M0.0737949 0L11.7827 15.6556L0 28.3843H2.65201L12.9679 17.2399L21.3026 28.3843H30.3269L17.959 11.8483L28.9263 0H26.2743L16.7742 10.2635L9.09807 0H0.0737949ZM3.97369 1.95326H8.1194L26.4265 26.4311H22.2808L3.97369 1.95326Z" fill="white"/>
<path d="M45.72 21V9.2H41.08V7H52.96V9.2H48.32V21H45.72ZM56.3672 21L52.4472 10.32H54.8072L58.1672 19.74H57.0472L60.5672 10.32H62.6672L66.0872 19.74H64.9872L68.4472 10.32H70.6672L66.7272 21H64.3272L61.2072 12.66H61.9472L58.7672 21H56.3672ZM72.3861 21V10.32H74.8861V21H72.3861ZM73.6461 8.56C73.1794 8.56 72.7928 8.41333 72.4861 8.12C72.1928 7.82667 72.0461 7.47333 72.0461 7.06C72.0461 6.63333 72.1928 6.28 72.4861 6C72.7928 5.70667 73.1794 5.56 73.6461 5.56C74.1128 5.56 74.4928 5.7 74.7861 5.98C75.0928 6.24667 75.2461 6.58667 75.2461 7C75.2461 7.44 75.0994 7.81333 74.8061 8.12C74.5128 8.41333 74.1261 8.56 73.6461 8.56ZM82.1873 21.14C81.014 21.14 80.1073 20.84 79.4673 20.24C78.8273 19.6267 78.5073 18.7267 78.5073 17.54V7.96H81.0073V17.48C81.0073 17.9867 81.134 18.38 81.3873 18.66C81.654 18.94 82.0207 19.08 82.4873 19.08C83.0473 19.08 83.514 18.9333 83.8873 18.64L84.5873 20.42C84.294 20.66 83.934 20.84 83.5073 20.96C83.0807 21.08 82.6407 21.14 82.1873 21.14ZM76.7473 12.4V10.4H83.8673V12.4H76.7473ZM90.41 21.14C89.2367 21.14 88.33 20.84 87.69 20.24C87.05 19.6267 86.73 18.7267 86.73 17.54V7.96H89.23V17.48C89.23 17.9867 89.3567 18.38 89.61 18.66C89.8767 18.94 90.2433 19.08 90.71 19.08C91.27 19.08 91.7367 18.9333 92.11 18.64L92.81 20.42C92.5167 20.66 92.1567 20.84 91.73 20.96C91.3033 21.08 90.8633 21.14 90.41 21.14ZM84.97 12.4V10.4H92.09V12.4H84.97ZM99.535 21.14C98.3483 21.14 97.3083 20.9067 96.415 20.44C95.535 19.96 94.8483 19.3067 94.355 18.48C93.875 17.6533 93.635 16.7133 93.635 15.66C93.635 14.5933 93.8683 13.6533 94.335 12.84C94.815 12.0133 95.4683 11.3667 96.295 10.9C97.135 10.4333 98.0883 10.2 99.155 10.2C100.195 10.2 101.122 10.4267 101.935 10.88C102.748 11.3333 103.388 11.9733 103.855 12.8C104.322 13.6267 104.555 14.6 104.555 15.72C104.555 15.8267 104.548 15.9467 104.535 16.08C104.535 16.2133 104.528 16.34 104.515 16.46H95.615V14.8H103.195L102.215 15.32C102.228 14.7067 102.102 14.1667 101.835 13.7C101.568 13.2333 101.202 12.8667 100.735 12.6C100.282 12.3333 99.755 12.2 99.155 12.2C98.5417 12.2 98.0017 12.3333 97.535 12.6C97.0817 12.8667 96.7217 13.24 96.455 13.72C96.2017 14.1867 96.075 14.74 96.075 15.38V15.78C96.075 16.42 96.2217 16.9867 96.515 17.48C96.8083 17.9733 97.2217 18.3533 97.755 18.62C98.2883 18.8867 98.9017 19.02 99.595 19.02C100.195 19.02 100.735 18.9267 101.215 18.74C101.695 18.5533 102.122 18.26 102.495 17.86L103.835 19.4C103.355 19.96 102.748 20.3933 102.015 20.7C101.295 20.9933 100.468 21.14 99.535 21.14ZM106.956 21V10.32H109.336V13.26L109.056 12.4C109.376 11.68 109.876 11.1333 110.556 10.76C111.25 10.3867 112.11 10.2 113.136 10.2V12.58C113.03 12.5533 112.93 12.54 112.836 12.54C112.743 12.5267 112.65 12.52 112.556 12.52C111.61 12.52 110.856 12.8 110.296 13.36C109.736 13.9067 109.456 14.7267 109.456 15.82V21H106.956Z" fill="white"/>
</svg>
