<svg width="141" height="36" viewBox="0 0 141 36" fill="none" xmlns="http://www.w3.org/2000/svg">
<path d="M18 35.2316C27.5167 35.2316 35.2316 27.5167 35.2316 18C35.2316 8.48318 27.5167 0.768311 18 0.768311C8.48318 0.768311 0.768311 8.48318 0.768311 18C0.768311 27.5167 8.48318 35.2316 18 35.2316Z" fill="#333333"/>
<mask id="mask0_8_186" style="mask-type:luminance" maskUnits="userSpaceOnUse" x="0" y="0" width="36" height="36">
<path d="M18.0001 35.984C27.9323 35.984 35.984 27.9323 35.984 18.0001C35.984 8.0678 27.9323 0.0161133 18.0001 0.0161133C8.0678 0.0161133 0.0161133 8.0678 0.0161133 18.0001C0.0161133 27.9323 8.0678 35.984 18.0001 35.984Z" fill="white"/>
</mask>
<g mask="url(#mask0_8_186)">
<path d="M34.862 39.7326C34.862 39.2852 34.7842 38.9803 34.7129 38.5329C34.5637 38.1567 34.4859 37.9362 34.1876 37.4822C34.0384 37.4044 33.9606 37.4044 33.9606 37.2552C33.8828 37.1061 33.8114 36.8077 33.7336 36.6586L33.9606 35.9841C34.0384 35.7571 33.9606 35.4588 33.9606 35.1605C33.8828 35.0113 33.6623 34.7843 33.5844 34.6351C33.1369 34.259 32.683 34.0385 32.1576 33.8115C30.9578 32.7609 29.6867 31.9372 28.4869 30.9644C28.3378 30.8866 28.2599 30.7374 28.1886 30.5883C28.1108 30.4391 27.9616 30.3613 28.0394 30.2899C28.0394 29.7646 27.8124 29.2393 27.5141 28.7918C27.2158 28.4157 26.8396 28.1952 26.4635 28.1952C26.016 28.1952 25.562 28.3443 25.2637 28.4935C25.0367 28.7205 24.7384 28.8696 24.5114 29.0901C23.3116 29.6868 22.0405 29.8424 20.8407 30.5169C20.5423 30.6661 20.3153 30.7439 20.1662 30.9644C20.0884 30.6661 20.0884 30.3678 20.017 30.0629C19.9392 29.9138 19.7187 29.6868 19.6409 29.5376C19.79 28.1887 19.563 26.7684 19.1156 25.4194C18.9664 24.9719 18.8172 24.5179 18.7394 24.0705C18.8886 24.3688 19.1869 24.4466 19.4139 24.6671C19.563 24.9654 19.79 25.3416 20.0105 25.4194C20.2375 25.4972 20.458 25.4194 20.6072 25.3416C20.7564 25.4194 20.9833 25.4908 21.1325 25.4194C21.58 25.2703 21.9561 25.1211 22.3323 24.8228C22.7084 24.3753 22.929 23.7721 23.0846 23.3246C23.1624 23.1755 23.3116 23.0977 23.3116 23.0263C23.3894 22.7993 23.2338 22.4297 23.1624 22.274C22.7863 21.7487 22.8641 21.0742 22.6371 20.4776C22.4879 19.5761 22.3388 18.7524 22.6371 17.8575C22.7149 17.7083 22.7863 17.4813 22.7863 17.3322C22.7863 16.5085 22.7085 15.9054 22.4879 15.3087C22.6371 15.3865 22.7863 15.2309 22.9354 15.1596C23.0133 15.0104 23.0846 15.0817 23.1624 14.9326C23.2402 14.7834 23.3894 14.7056 23.3894 14.7056C23.5386 14.7834 23.8369 14.7056 23.9861 14.6277C24.1352 14.5499 24.2844 14.4786 24.5114 14.4008C24.6605 14.3229 24.7384 14.1024 24.8875 13.9533C25.0367 14.0311 25.335 13.9533 25.4842 13.8754C25.6334 13.7976 25.7825 13.7263 26.0095 13.6485C26.1587 13.5706 26.3078 13.4993 26.3857 13.201L26.5348 13.2788C26.8331 13.201 26.9823 13.1296 27.1315 13.0518C27.579 12.9026 27.7281 12.8248 27.9551 12.6043C28.2534 12.5265 28.4026 12.4551 28.5518 12.3773C28.8501 12.2995 29.0771 12.1503 29.3754 11.9298C29.4532 11.7807 29.5246 11.852 29.5246 11.852C29.6737 11.7742 29.8229 11.7742 29.9721 11.7028C30.1212 11.625 30.4196 11.5537 30.5687 11.4759C30.7179 11.398 30.7179 11.398 30.8671 11.3267C31.1654 11.1775 31.6194 11.1775 31.9177 11.0284L32.0669 10.9505C31.9177 11.0284 31.7685 11.0284 31.6194 11.0997C31.6194 11.0997 31.4702 11.0219 31.1719 11.0997C31.0227 11.1775 30.8735 11.1775 30.7244 11.2489C30.5752 11.3267 30.426 11.3267 30.2769 11.398L30.5039 11.4759C30.3547 11.398 30.3547 11.5537 30.2055 11.5537C30.0564 11.6315 29.7581 11.7028 29.6089 11.6315C29.4597 11.7093 29.3106 11.7093 29.1614 11.7807C29.1614 11.7807 29.0122 11.8585 28.8631 11.8585C28.3378 11.8585 27.8903 11.9363 27.365 12.0855C27.2158 12.0077 27.2158 12.1633 27.0666 12.1633C26.8396 12.3903 26.5413 12.3903 26.47 12.3903C26.1716 12.4681 25.7177 12.4681 25.5685 12.6886C25.4193 12.6108 25.1923 12.5395 25.0432 12.6886C24.5957 12.6886 24.2909 12.7664 23.9212 13.0648C23.7721 12.9869 23.5451 12.9156 23.3959 13.0648C23.2467 12.6886 23.0197 12.7664 23.0197 12.7664C22.7214 12.3903 22.4944 12.319 22.2674 12.092C21.366 11.4175 20.3932 10.97 19.2712 10.5938C18.895 10.4447 18.6745 10.3669 18.2984 10.1464C17.7731 9.99719 17.4748 9.7702 17.0986 9.47187C16.7224 9.24489 16.4241 8.87522 16.1258 8.49907C16.2036 8.79739 16.3528 9.02438 16.5733 9.17355C16.8716 9.5497 17.3256 9.99719 17.6953 10.075C16.9429 9.84802 16.2685 9.32271 15.6005 8.80388C15.153 8.57689 14.699 8.27856 14.2515 8.27856C13.804 8.27856 13.3501 8.57689 12.9804 8.87522C13.2787 8.72605 13.804 8.57689 14.1802 8.57689C14.8547 8.65472 15.38 9.10221 15.9053 9.40053C15.38 9.25137 15.0816 9.02438 14.5563 8.80388C14.1088 8.80388 13.804 8.95304 13.4344 9.18003C13.7327 9.10221 13.9597 8.95304 14.1867 9.03087C14.6342 9.03087 15.0881 9.3292 15.4578 9.40702C14.8611 9.63401 14.1088 9.70535 13.6613 9.78317C13.2139 9.93233 12.6885 9.861 12.1632 9.70535C11.9362 9.62752 11.5666 9.40702 11.3396 9.18003C11.4174 9.3292 11.5666 9.70535 11.8649 9.77669C12.2411 10.0037 12.6172 10.1528 12.9869 10.302C12.5394 10.302 12.1632 10.302 11.7157 10.0037C11.2682 9.70535 10.9634 9.3292 10.7429 9.03087C10.8921 9.3292 10.8921 9.78317 11.1191 10.0037C11.2682 10.302 11.6444 10.4512 11.9427 10.529C11.7157 10.4512 11.4174 10.3798 11.1191 10.1528C10.8921 10.075 10.6716 9.85451 10.4446 9.55618C10.5938 9.85451 10.7429 10.3798 11.1191 10.6068C11.3461 10.8338 11.5666 10.9051 11.7936 11.1321C11.6444 11.0543 11.3461 11.1321 11.2682 11.1321C10.5938 11.0543 10.0684 11.0543 9.32263 11.0543C8.57681 11.0543 7.97367 11.4305 7.37702 11.8066C7.67534 11.6574 8.20066 11.5083 8.64815 11.3591C8.94648 11.2813 9.40045 11.2813 9.62096 11.2813C8.86865 11.4305 8.12283 11.6574 7.44835 11.9558C7.0722 12.2541 6.54689 12.4811 6.39773 13.0064C6.24856 13.3826 6.39773 13.83 6.54689 14.2775C6.46906 13.9792 6.3199 13.6809 6.46906 13.3047C6.61823 12.9286 6.91656 12.7794 7.29271 12.4811C7.06572 12.8572 6.61823 13.2334 6.61823 13.6809C6.76739 14.1284 7.06572 14.5045 7.37053 14.7315C7.14354 14.5045 6.99438 14.2062 7.0722 13.9079C6.99438 13.6095 7.37053 13.4604 7.59752 13.2334C8.12284 12.8572 8.86865 12.7859 9.47179 12.7081C8.94648 12.9351 8.34982 13.1556 8.04501 13.6809C7.81802 14.057 7.74668 14.5824 7.89585 15.0298C7.97367 14.8029 7.89585 14.5045 8.12284 14.2775C8.34982 13.9014 8.79732 13.83 9.17347 13.5252C9.09564 13.7522 8.87514 13.9727 8.79732 14.2775C8.49899 14.725 8.12283 15.179 7.52618 15.5487C7.22785 15.6978 6.77388 15.6978 6.55337 15.6265C6.17722 15.3995 5.8789 15.0298 5.80107 14.5759C5.95023 14.8742 5.95023 15.3282 6.32638 15.5487C6.55337 15.7757 6.92304 15.847 7.29919 15.9962C6.8517 15.9962 6.32639 16.074 6.02806 15.6978C5.65191 15.4708 5.58057 14.8742 5.58057 14.4267C5.4314 14.952 5.4314 15.3282 5.65839 15.8535C5.95672 16.2296 6.41069 16.528 6.78036 16.6058C6.40421 16.4566 6.18371 16.3788 5.80755 16.1583C5.58057 15.9313 5.36006 15.7108 5.2109 15.406C5.28872 16.0026 5.73621 16.3788 6.18371 16.6771C6.78036 16.9755 7.30568 17.0533 7.90882 16.9755C7.68183 17.2024 7.3835 17.3516 7.08517 17.2738C6.55986 17.2738 5.88538 17.0468 5.28872 17.1246C4.84123 17.1246 4.61424 17.5721 4.31592 17.9483C4.54291 17.7213 4.91257 17.4229 5.28872 17.4229C5.81404 17.4229 6.33936 17.6499 6.71551 17.7213C6.41718 17.7991 6.04103 17.6435 5.7427 17.7213C5.44437 17.7991 4.9904 17.7991 4.84124 18.0196C4.61425 18.2466 4.61424 18.6163 4.69207 18.9211C4.76989 18.7719 4.69207 18.4736 4.84124 18.3958C5.06822 18.1688 5.36655 18.1688 5.43789 18.1688C5.66488 18.2466 6.11237 18.2466 6.48852 18.4671C6.04103 18.4671 5.73622 18.5449 5.51571 18.8432C5.28872 19.2194 5.21739 19.4399 5.06822 19.8161C4.84124 20.043 4.76989 20.4127 4.62073 20.7889C4.24458 21.5412 4.09542 22.4361 4.32241 23.3376C4.54939 23.9343 4.7699 24.6087 5.29521 25.0627C5.14605 24.7644 4.84772 24.2391 4.84772 23.9408C4.76989 23.3441 4.76989 22.8188 5.07471 22.3648C5.22387 21.9887 5.45086 21.6125 5.60002 21.2428L5.5222 21.392C5.44438 21.9887 5.14605 22.514 5.22387 23.2663C5.30169 24.0186 5.60002 24.6152 5.97618 25.2119C5.89835 25.0627 5.74919 24.6866 5.67785 24.3882C5.52868 23.9408 5.45086 23.3376 5.60002 22.8123C5.82701 22.06 6.42367 21.5412 6.87116 21.0158C6.57283 21.6125 6.2745 22.0665 6.04751 22.741C5.89835 23.1171 5.89835 23.5646 6.04751 24.0121C6.12534 24.3104 6.2745 24.6087 6.2745 25.0627C6.2745 25.5102 6.2745 25.8864 5.89835 26.1847C5.5222 26.483 4.99688 26.483 4.62721 26.3339C4.25755 26.1847 3.95274 25.8085 3.65441 25.4324C3.73223 25.7307 3.8814 26.029 4.03056 26.4052C4.25755 26.6322 4.62721 26.7035 4.8542 26.9305C4.1019 26.7035 3.27826 26.7035 2.53244 26.7813C2.23411 26.8592 1.78013 26.9305 1.55963 27.1575C1.33264 27.3845 1.41047 27.6828 1.48181 27.832C1.63097 28.1303 1.85796 28.5065 2.00712 28.8048C1.85796 28.5065 1.63097 28.2795 1.7088 27.9811C1.78662 27.6828 1.93579 27.605 2.08495 27.6828C2.53244 27.6828 3.05775 27.6828 3.58307 27.9098C3.81006 27.9876 4.17973 28.1368 4.40671 28.2081C4.17973 28.1303 3.8814 28.2081 3.58307 28.059C3.43391 27.9811 3.28474 28.1368 3.13558 28.2081C3.05775 28.3573 3.05775 28.4351 3.13558 28.6556C3.2134 28.9539 3.36257 29.1809 3.58307 29.3301C3.50525 29.1809 3.43391 28.8826 3.50525 28.7334C3.58307 28.5065 3.8814 28.4351 4.03056 28.5065C4.70504 28.5843 5.37952 28.8048 6.054 28.8826C6.57931 28.8826 7.17597 28.8048 7.55212 28.5065C7.92827 28.2081 8.07744 27.832 8.07744 27.3845C8.07744 27.832 8.07744 28.2081 7.85045 28.5843C7.55212 29.0318 6.94898 29.1096 6.50149 29.2588C5.90484 29.3366 5.37952 29.1809 4.70504 29.1096C5.30169 29.3366 6.054 29.5571 6.72848 29.6349C7.17597 29.6349 7.48078 29.5571 7.85045 29.5571C7.32513 29.7841 6.87764 29.9332 6.35233 29.9332C5.90484 29.9332 5.75567 29.7063 5.3017 29.7063C5.67785 29.8554 5.89835 30.0046 6.2745 30.1537C6.65065 30.3029 7.09815 30.3029 7.4743 30.2316C7.17597 30.3807 6.65065 30.6791 6.2745 30.5299C6.04751 30.4521 5.67785 30.2316 5.45086 30.1537C5.67785 30.3807 5.89835 30.6012 6.20316 30.8282C6.57932 30.9774 6.79982 31.0552 7.25379 31.0552C5.37952 32.4042 3.28474 33.4548 1.11214 33.9801C0.586827 33.9801 0.210673 33.831 -0.385982 33.7531C-0.982636 33.6753 -1.58577 33.6753 -2.11109 33.9023C-2.40942 33.9801 -2.55858 34.0515 -2.93473 34.2006C-3.68704 34.5768 -4.51068 34.7259 -5.18516 35.3226C-5.71048 35.6987 -6.15797 36.2954 -6.53412 36.8207C-7.05943 36.6715 -7.43559 36.5224 -7.88308 36.2241C-8.55756 35.6987 -9.08287 35.2513 -9.60819 34.6481C-10.0557 34.2006 -10.4318 33.6753 -10.6588 33.15C-10.7366 32.8517 -10.8858 32.6247 -11.1063 32.4755C-11.6316 31.8789 -12.2283 31.2757 -12.9806 30.7504C-13.4281 30.4521 -14.0312 30.4521 -14.5565 30.5234C-15.1532 30.6012 -15.6785 30.9709 -16.1325 31.4249C-16.7291 31.9502 -17.1831 32.6247 -17.5593 33.2213C-18.0846 33.0722 -18.6099 32.923 -18.8304 32.3977C-19.1287 32.0215 -19.1287 31.574 -19.2779 31.1266C-19.2779 31.574 -19.4271 31.9502 -19.2001 32.2485C-19.1222 32.3977 -19.0509 32.696 -18.8239 32.923C-19.2714 32.4755 -19.6476 32.0994 -19.6476 31.574C-19.6476 31.0487 -19.4206 30.5234 -19.2714 29.9981C-19.4984 30.3742 -19.5697 30.5948 -19.8681 30.8996C-20.0172 31.4249 -20.1664 31.801 -20.095 32.3977C-20.0172 32.9943 -19.5697 33.3705 -19.1222 33.8245C-19.4984 33.5975 -19.8745 33.4483 -20.0237 33.15C-20.2507 32.923 -20.3999 32.6247 -20.549 32.2485C-20.322 32.8452 -20.1015 33.5197 -19.6476 33.8958C-19.1936 34.272 -18.7461 34.5703 -18.1494 34.9464C-18.3764 35.9971 -18.2986 37.119 -18.3764 38.241C-18.9017 38.0918 -19.4984 37.8649 -20.1015 37.8649C-20.3999 37.9427 -20.8538 37.9427 -21.003 38.1632C-21.23 38.5393 -21.5283 38.8377 -21.4505 39.136C-21.3013 38.6107 -20.9252 38.3123 -20.3285 38.2345C-19.8032 38.2345 -19.2779 38.4615 -18.7526 38.6107C-19.2779 38.6107 -19.8032 38.6885 -20.2507 38.9868C-20.4777 39.2138 -20.6982 39.4343 -20.776 39.6613C-21.2235 38.8377 -21.003 39.136 -20.8538 39.363C-20.9317 39.2138 -21.003 38.9155 -20.9317 38.6107C-20.8538 38.3837 -20.4842 38.1632 -20.2572 38.1632C-19.6605 38.0854 -19.1352 38.0854 -18.6099 38.241C-18.5321 38.5393 -18.4607 38.6885 -18.4607 38.9933C-18.4607 39.2981 -18.4607 39.4408 -18.3829 39.7456C-18.7591 39.5965 -19.0574 39.6678 -19.4335 39.5186C-19.9589 39.5186 -20.6333 39.4408 -21.1586 39.6678C-21.684 39.8948 -22.0601 40.3423 -22.3584 40.7898C-22.1315 40.4136 -21.7618 40.2644 -21.3078 40.1153C-20.7112 39.8883 -20.108 39.9661 -19.4335 40.0375C-20.0302 40.1153 -20.5555 40.1153 -20.9317 40.4136C-21.3078 40.7119 -21.5283 41.0881 -21.8331 41.5356C-21.3856 41.0881 -20.8603 40.7119 -20.4063 40.5628C-19.881 40.5628 -19.2844 40.6406 -18.6099 40.7119C-18.6877 40.9389 -18.9082 41.3086 -19.1352 41.5356C-19.3622 41.7626 -19.6605 41.9117 -19.9589 41.9831C-19.6605 41.9052 -19.3622 41.9053 -19.2065 41.8339C-18.9082 41.7561 -18.8304 41.5356 -18.5321 41.3864C-18.7591 41.7626 -18.9082 42.1387 -19.2844 42.437C-19.5114 42.664 -19.8097 42.8132 -20.0367 43.0337C-20.8603 42.5084 -21.7618 41.7626 -22.8059 41.6069C-23.5582 41.3799 -24.531 41.6069 -25.1277 41.9831C-24.6802 41.8339 -24.0057 41.6069 -23.5518 41.7561C-23.0264 41.7561 -22.4298 42.1322 -21.9045 42.4306C-22.6568 42.2036 -23.4026 41.9052 -24.1549 41.9831C-24.9072 42.1322 -25.426 42.5797 -26.0292 43.0337C-25.5038 42.6576 -24.9072 42.2814 -24.2327 42.2101C-23.6361 42.1322 -23.0329 42.437 -22.5854 42.8845C-22.2093 43.1115 -21.911 43.4099 -21.5348 43.6368C-22.4363 43.3385 -23.3312 43.1894 -24.2327 43.1894C-24.6802 43.1894 -25.2833 43.2672 -25.6595 43.5655C-26.0357 43.8638 -26.1848 44.24 -26.1848 44.6875V45.7381C-26.1848 45.2906 -26.1848 44.9145 -25.9578 44.5383C-25.7308 44.1622 -25.4325 44.1622 -25.0564 44.013C-24.758 43.9352 -24.3041 43.9352 -24.0057 43.9352C-24.4532 43.9352 -24.9072 44.0843 -25.2055 44.2335C-25.3547 44.7588 -25.5038 45.135 -25.5817 45.3555C-25.5817 45.803 -25.5038 46.1078 -25.5038 46.4774C-25.426 46.3283 -25.5038 46.03 -25.5038 45.9521C-25.426 45.7251 -25.3547 45.4268 -25.1277 45.1998C-24.8294 45.0507 -24.3754 45.0507 -24.0771 44.9728C-23.4026 45.0507 -22.8059 45.349 -22.2028 45.7251C-22.5789 45.576 -23.1043 45.4268 -23.5518 45.4268C-23.8501 45.5046 -24.3041 45.5046 -24.4532 45.7251C-24.6802 45.9521 -24.7515 46.3218 -24.9007 46.6979C-24.8229 46.471 -24.6737 46.3218 -24.4532 46.2505C-24.1549 46.1013 -23.8566 46.1726 -23.6296 46.2505C-23.1043 46.3996 -22.5076 46.7758 -22.1315 47.1519C-22.5076 47.0028 -22.7281 46.8536 -23.1821 46.8536C-23.5582 46.7044 -24.0057 46.8536 -24.3041 46.9314C-24.1549 47.0092 -24.0057 46.8536 -23.8566 46.9314C-23.4091 46.9314 -22.9551 47.0806 -22.4298 47.3789C-22.0536 47.6059 -21.7553 47.9042 -21.3078 48.2025C-20.8603 48.65 -20.2572 48.9549 -19.8097 49.2532C-18.986 49.7785 -18.0132 50.226 -17.0404 50.3038C-16.366 50.3816 -15.6136 50.226 -14.9457 49.8563C-14.2712 49.4802 -13.6745 49.0327 -13.2205 48.4295C-13.5189 48.877 -13.7459 49.2532 -14.122 49.5515C-14.5695 50.0768 -15.244 50.453 -15.9963 50.6021C-16.8978 50.7513 -17.7927 50.6021 -18.545 50.3038C-17.4944 50.6021 -16.5216 50.9783 -15.471 50.8291C-14.6473 50.8291 -13.8237 50.5308 -13.2205 50.0055C-12.4682 49.4088 -12.0207 48.5787 -11.6446 47.6837C-11.6446 48.209 -11.6446 48.6565 -11.8716 49.1818C-12.0207 49.7072 -12.3969 50.0055 -12.6952 50.3038C-12.8444 50.3816 -12.9222 50.5308 -13.0714 50.6021L-13.2984 51.1988C-13.1492 51.121 -12.9222 51.0496 -12.9222 50.9005C-12.1699 50.3751 -11.6511 49.7007 -11.3463 48.7279C-11.0479 47.8264 -11.1971 46.8536 -11.3463 45.9586C-11.0479 45.4333 -10.6718 44.8366 -10.6718 44.2335C-10.6718 43.6304 -10.7496 43.0337 -10.9701 42.5084C-9.99731 41.6847 -9.24501 40.4136 -8.94668 38.9868C-8.86886 38.8377 -8.86886 38.6885 -8.71969 38.7598C-8.86886 39.136 -8.94668 39.5835 -9.01802 40.1088C-9.01802 40.5563 -8.79103 40.9324 -8.64187 41.2308C-8.79103 40.7833 -8.79103 40.3293 -8.64187 39.8818C-8.4927 39.3565 -8.19438 38.9803 -7.96739 38.6107C-7.96739 39.2073 -8.19438 39.7326 -8.04521 40.1866C-7.96739 40.3358 -8.04521 40.6341 -7.96739 40.7833C-7.88956 41.5356 -7.59124 42.3592 -7.37073 43.1829C-7.37073 43.7795 -7.22157 44.0843 -7.0724 44.6096C-6.99458 44.908 -6.77408 45.135 -6.77408 45.4333L-6.8519 45.7316C-6.8519 45.7316 -9.84815 47.4567 -10.821 48.3517C-11.1971 48.65 -11.6446 48.7992 -11.9429 49.2532C-12.1699 49.6293 -12.0921 50.0768 -11.9429 50.5243C-12.2413 50.6735 -12.6174 50.9005 -12.8444 51.1988C-13.0714 51.575 -12.9936 52.0224 -12.8444 52.4699C-12.7666 52.6191 -12.8444 52.9174 -12.7666 53.0666C-12.6887 54.0394 -12.5396 54.9409 -12.2413 55.9137C-12.1634 56.0628 -12.1634 56.212 -12.2413 56.3612C-12.2413 57.7879 -11.6446 60.7842 -11.6446 60.7842L-11.7938 61.1603C-11.7938 61.1603 -12.4682 61.6857 -12.2413 61.984C-12.1634 62.1331 -11.9429 62.3601 -11.7159 62.5806C-11.8651 62.9568 -11.8651 63.4043 -11.9429 63.6313C-12.0207 63.7804 -11.8651 63.7804 -11.7938 63.9296C-11.4176 64.1566 -11.1971 64.2279 -10.821 64.3771C-10.4448 64.5262 -10.0687 64.6041 -9.62116 64.6041C-9.472 64.2279 -9.39417 63.8518 -9.54333 63.4821C-9.62116 63.1838 -9.77032 62.8854 -9.99082 62.6585C-9.913 62.4315 -9.84166 62.1331 -9.84166 61.8348C-9.99083 61.3873 -10.2892 61.1603 -10.4383 60.635C-10.8145 59.9605 -10.8858 59.3639 -10.8145 58.6894C-10.8145 58.1641 -10.8923 57.5674 -10.8145 56.9643C-10.8145 56.439 -11.4111 55.09 -11.4111 55.09L-10.9636 53.6632C-10.9636 53.6632 -8.86886 58.0084 -8.19438 59.8827C-8.11655 60.0319 -8.2722 60.0319 -8.11655 60.181C-8.11655 60.6285 -8.11655 61.0047 -7.81822 61.53C-7.66906 61.8283 -7.29291 61.9775 -6.99458 62.0553C-7.14375 62.4315 -7.07241 62.7298 -6.91676 63.1773C-6.83893 63.3265 -6.68977 63.4043 -6.61843 63.5534C-6.17094 63.8518 -5.79479 63.9296 -5.26947 64.1501C-5.04248 64.2279 -4.74415 64.2993 -4.51717 64.0723C-4.59499 63.7739 -4.59499 63.4756 -4.81549 63.1708C-4.96466 62.7233 -5.26298 62.3472 -5.5678 61.971C-5.5678 61.971 -5.71696 61.8932 -5.64562 61.8218C-5.49646 61.4457 -5.41863 61.2252 -5.64562 60.849C-5.79479 60.5507 -6.17094 60.2524 -6.46927 60.0254C-7.14374 59.2018 -7.44207 58.3003 -7.81822 57.3275C-8.26571 55.7515 -9.01802 52.457 -9.01802 52.457V52.3791C-8.26571 51.9316 -7.59124 51.4063 -6.92324 51.108C-6.77408 51.0302 -6.47575 50.9588 -6.17094 50.9588C-5.72345 50.8097 -5.26947 50.6605 -4.8998 50.3622C-4.67281 50.1352 -4.45231 49.8369 -4.22532 49.6099C-3.84917 49.4607 -3.40168 49.3116 -3.17469 48.9354C-2.94771 48.5592 -2.79854 48.1831 -2.64938 47.8134C-2.20189 47.6643 -1.67657 47.4373 -1.30042 47.1389C-0.924266 46.8406 -0.775103 46.3153 -0.625939 45.79C0.0485399 45.7122 0.645194 45.6408 1.17051 45.2647C1.54666 44.9664 1.76717 44.5902 2.07198 44.1427C2.37031 43.6952 2.51947 43.1699 2.66863 42.6446C4.46508 43.2412 6.56635 43.3191 8.36279 42.9429C10.0101 42.6446 11.5082 41.8209 12.935 40.9195C14.4331 39.8688 15.7821 38.5977 16.9819 37.1709C17.6563 37.3979 18.253 37.6962 18.8561 37.4693C19.3036 37.3201 19.5306 37.0931 19.9068 36.7948C20.4321 36.4186 21.1066 36.1981 21.781 35.822C23.2792 35.0697 24.7059 34.246 26.4246 33.6494C27.1769 34.7713 27.7735 36.049 27.9227 37.3979C27.8449 37.6249 27.7735 37.7741 27.8449 38.0724C27.8449 38.5199 27.8449 38.896 27.9227 39.1944C27.7735 39.2722 27.6957 39.4213 27.6957 39.5705C27.6179 39.7197 27.5465 39.9467 27.6957 40.0958C27.3974 40.1737 27.1704 40.472 27.099 40.7703C26.9499 41.1465 26.9499 41.594 27.1769 41.8923C27.2547 42.0414 27.326 42.2684 27.553 42.4176C27.78 42.5668 27.8514 42.7937 28.0783 42.8651C28.3053 42.9429 28.5258 42.8651 28.5258 42.7159C28.7528 42.3398 29.0511 42.0414 29.3495 41.5939C29.6478 41.5161 29.8748 41.367 29.9461 41.0686C30.0953 40.6925 29.9461 40.245 29.797 39.7197C29.7191 39.5705 29.7191 39.4213 29.797 39.1944C29.7191 37.6184 29.3495 36.1203 28.8955 34.5508C29.6478 34.927 30.1666 35.3745 30.8411 35.8998C31.0681 36.1268 31.3664 36.3473 31.4378 36.6521C31.5091 36.9569 31.6648 37.2487 31.8853 37.4044C32.1122 37.6314 32.4106 37.5536 32.6376 37.6314C32.4884 38.0075 32.4106 38.3059 32.4106 38.682C32.4884 38.8312 32.5597 39.0582 32.7089 39.0582C32.5597 39.4343 32.5597 39.8818 32.6311 40.258C32.7089 40.5563 32.8581 40.7833 33.2277 41.0103C33.6039 41.2373 34.0514 41.5356 34.4989 41.5356C34.648 41.6134 34.9464 41.5356 35.0242 41.3086C35.0112 40.3293 34.9334 40.031 34.862 39.7326ZM18.2271 23.9213C18.1492 23.3246 18.0001 22.8707 17.9287 22.274C18.0779 22.5723 18.3049 22.7993 18.681 23.0977C18.3762 23.396 18.1492 23.623 18.2271 23.9213Z" fill="url(#paint0_linear_8_186)"/>
</g>
<path d="M1.44283 10.9569C5.34054 1.81898 15.9052 -2.45488 25.0431 1.44283C34.181 5.34054 38.4549 15.9052 34.5572 25.0431C30.6595 34.181 20.0948 38.4549 10.9569 34.5572C1.81898 30.6595 -2.45488 20.1013 1.44283 10.9569ZM33.1369 24.4465C36.7363 16.1322 32.8385 6.39117 24.4465 2.86961C16.0544 -0.651947 6.39117 3.16794 2.86961 11.56C-0.651947 19.9521 3.24577 29.6153 11.56 33.2147C19.8743 36.8141 29.6153 32.8385 33.1369 24.4465Z" fill="url(#paint1_linear_8_186)"/>
<path d="M49.11 24.18C47.382 24.18 46.026 23.694 45.042 22.722C44.07 21.75 43.584 20.346 43.584 18.51V11.4H45.924V18.42C45.924 19.716 46.2 20.658 46.752 21.246C47.316 21.834 48.108 22.128 49.128 22.128C50.148 22.128 50.934 21.834 51.486 21.246C52.038 20.658 52.314 19.716 52.314 18.42V11.4H54.618V18.51C54.618 20.346 54.126 21.75 53.142 22.722C52.17 23.694 50.826 24.18 49.11 24.18Z" fill="white"/>
<path d="M58.2551 24V11.4H60.1811L68.0831 21.102H67.1291V11.4H69.4511V24H67.5251L59.6231 14.298H60.5771V24H58.2551Z" fill="white"/>
<path d="M73.1874 24V11.4H75.5274V24H73.1874Z" fill="white"/>
<path d="M85.1274 24.18C84.1674 24.18 83.2734 24.024 82.4454 23.712C81.6294 23.388 80.9154 22.938 80.3034 22.362C79.7034 21.774 79.2354 21.084 78.8994 20.292C78.5634 19.5 78.3954 18.636 78.3954 17.7C78.3954 16.764 78.5634 15.9 78.8994 15.108C79.2354 14.316 79.7094 13.632 80.3214 13.056C80.9334 12.468 81.6474 12.018 82.4634 11.706C83.2794 11.382 84.1734 11.22 85.1454 11.22C86.1774 11.22 87.1194 11.4 87.9714 11.76C88.8234 12.108 89.5434 12.63 90.1314 13.326L88.6194 14.748C88.1634 14.256 87.6534 13.89 87.0894 13.65C86.5254 13.398 85.9134 13.272 85.2534 13.272C84.5934 13.272 83.9874 13.38 83.4354 13.596C82.8954 13.812 82.4214 14.118 82.0134 14.514C81.6174 14.91 81.3054 15.378 81.0774 15.918C80.8614 16.458 80.7534 17.052 80.7534 17.7C80.7534 18.348 80.8614 18.942 81.0774 19.482C81.3054 20.022 81.6174 20.49 82.0134 20.886C82.4214 21.282 82.8954 21.588 83.4354 21.804C83.9874 22.02 84.5934 22.128 85.2534 22.128C85.9134 22.128 86.5254 22.008 87.0894 21.768C87.6534 21.516 88.1634 21.138 88.6194 20.634L90.1314 22.074C89.5434 22.758 88.8234 23.28 87.9714 23.64C87.1194 24 86.1714 24.18 85.1274 24.18Z" fill="white"/>
<path d="M92.7335 24V11.4H97.9175C99.0335 11.4 99.9875 11.58 100.78 11.94C101.584 12.3 102.202 12.816 102.634 13.488C103.066 14.16 103.282 14.958 103.282 15.882C103.282 16.806 103.066 17.604 102.634 18.276C102.202 18.936 101.584 19.446 100.78 19.806C99.9875 20.154 99.0335 20.328 97.9175 20.328H94.0295L95.0735 19.266V24H92.7335ZM100.978 24L97.7915 19.428H100.294L103.498 24H100.978ZM95.0735 19.518L94.0295 18.402H97.8095C98.8415 18.402 99.6155 18.18 100.132 17.736C100.66 17.292 100.924 16.674 100.924 15.882C100.924 15.078 100.66 14.46 100.132 14.028C99.6155 13.596 98.8415 13.38 97.8095 13.38H94.0295L95.0735 12.228V19.518Z" fill="white"/>
<path d="M109.18 24V19.014L109.702 20.454L104.23 11.4H106.732L111.124 18.69H109.72L114.148 11.4H116.452L110.98 20.454L111.52 19.014V24H109.18Z" fill="white"/>
<path d="M118.186 24V11.4H123.37C124.486 11.4 125.44 11.58 126.232 11.94C127.036 12.3 127.654 12.816 128.086 13.488C128.518 14.16 128.734 14.958 128.734 15.882C128.734 16.806 128.518 17.604 128.086 18.276C127.654 18.948 127.036 19.464 126.232 19.824C125.44 20.184 124.486 20.364 123.37 20.364H119.482L120.526 19.266V24H118.186ZM120.526 19.518L119.482 18.384H123.262C124.294 18.384 125.068 18.168 125.584 17.736C126.112 17.292 126.376 16.674 126.376 15.882C126.376 15.078 126.112 14.46 125.584 14.028C125.068 13.596 124.294 13.38 123.262 13.38H119.482L120.526 12.228V19.518Z" fill="white"/>
<path d="M133.618 24V13.38H129.442V11.4H140.134V13.38H135.958V24H133.618Z" fill="white"/>
<defs>
<linearGradient id="paint0_linear_8_186" x1="33.4356" y1="44.9633" x2="-21.0432" y2="27.5415" gradientUnits="userSpaceOnUse">
<stop stop-color="#D8FF55"/>
<stop offset="0.0961" stop-color="#CFFC52"/>
<stop offset="0.256" stop-color="#B5F54B"/>
<stop offset="0.4599" stop-color="#8CE83F"/>
<stop offset="0.7" stop-color="#52D72F"/>
<stop offset="0.9677" stop-color="#09C21A"/>
<stop offset="1" stop-color="#00BF17"/>
</linearGradient>
<linearGradient id="paint1_linear_8_186" x1="25.0478" y1="1.44481" x2="10.9522" y2="34.5552" gradientUnits="userSpaceOnUse">
<stop stop-color="#D8FF55"/>
<stop offset="0.0961" stop-color="#CFFC52"/>
<stop offset="0.256" stop-color="#B5F54B"/>
<stop offset="0.4599" stop-color="#8CE83F"/>
<stop offset="0.7" stop-color="#52D72F"/>
<stop offset="0.9677" stop-color="#09C21A"/>
<stop offset="1" stop-color="#00BF17"/>
</linearGradient>
</defs>
</svg>
